<?xml version="1.0" encoding="UTF-8"?>
<svg version="1.1" xmlns="http://www.w3.org/2000/svg" width="512" height="512">
    <path
        d="M0 0 C0.95785455 -0.00453111 1.91570911 -0.00906223 2.90258956 -0.01373065 C6.10281342 -0.02636119 9.30286681 -0.02475513 12.50311279 -0.02310181 C14.80154132 -0.02908791 17.09996784 -0.03589365 19.39839172 -0.04345703 C25.63613093 -0.0611164 31.87381525 -0.06581241 38.11157703 -0.0670886 C42.01083 -0.06851086 45.91006904 -0.07278189 49.80931854 -0.07808304 C62.71656757 -0.09562906 75.62377767 -0.10492332 88.53103808 -0.10342209 C89.22613426 -0.10334218 89.92123044 -0.10326227 90.63739014 -0.10317993 C91.33334068 -0.10309817 92.02929123 -0.10301641 92.74633119 -0.10293217 C104.01936781 -0.10211966 115.2922707 -0.12125058 126.56526867 -0.14945666 C138.1560922 -0.17822779 149.74684447 -0.19162887 161.33770442 -0.19026911 C167.83873531 -0.18975976 174.33961482 -0.19542846 180.84061432 -0.21662521 C186.95725783 -0.23602441 193.07360585 -0.23612024 199.19025993 -0.22159195 C201.43032959 -0.21950483 203.67041783 -0.22419889 205.9104557 -0.23631287 C227.53686889 -0.3456564 227.53686889 -0.3456564 236.31072998 4.26742554 C237.30588623 4.74824585 238.30104248 5.22906616 239.32635498 5.72445679 C247.23743765 10.52366253 252.2187614 14.92827584 256.24822998 23.32992554 C260.14084679 30.39462964 265.02363522 31.63537663 272.29510498 33.91586304 C277.94514164 35.70246747 282.57078025 38.7629709 287.31072998 42.26742554 C288.01455811 42.77660522 288.71838623 43.28578491 289.44354248 43.81039429 C302.5066534 54.1840412 309.18716577 70.09597729 311.31072998 86.26742554 C311.58790739 91.34422115 311.58585755 96.4152327 311.57142639 101.49795532 C311.57445189 103.01881177 311.57834336 104.53966671 311.58301896 106.06051898 C311.5932565 110.2139142 311.59112801 114.36722268 311.58683836 118.52062488 C311.58436337 123.01020397 311.59339494 127.49976259 311.60087585 131.98933411 C311.61360385 140.77536492 311.61541888 149.56136514 311.61307559 158.34740362 C311.61128999 165.49232516 311.61304727 172.63723745 311.61730003 179.7821579 C311.61789522 180.80044496 311.61849041 181.81873203 311.61910364 182.86787628 C311.62031544 184.93678643 311.62152957 187.00569659 311.62274601 189.07460675 C311.63361443 208.46320041 311.63146248 227.85177667 311.62536117 247.24037132 C311.62019379 264.95754276 311.63144397 282.67465919 311.65045939 300.39181975 C311.66985619 318.60465548 311.67809048 336.81746522 311.67433614 355.03031135 C311.67242674 365.24702499 311.67488603 375.46369184 311.68905067 385.68039703 C311.70098901 394.37902386 311.70234198 403.07757509 311.69026051 411.77620301 C311.68438875 416.20947022 311.68322495 420.64259931 311.69526291 425.07585716 C311.70617924 429.14352077 311.70295075 433.21093189 311.68900122 437.27858397 C311.68636999 438.74082722 311.68867065 440.20309063 311.69673709 441.66531399 C311.7608817 454.17289621 310.79510269 467.20620854 304.81072998 478.45492554 C304.46961182 479.11291138 304.12849365 479.77089722 303.77703857 480.44882202 C295.09481791 496.35722678 281.07809429 505.71188427 264.1421299 511.31589699 C257.23478521 512.99824364 250.01849101 512.54973448 242.9536438 512.53485107 C241.27379643 512.53858989 239.5939508 512.54319234 237.91410792 512.54858172 C233.30734917 512.56079869 228.70066311 512.56055278 224.09389186 512.55819297 C219.12165508 512.55778447 214.14944151 512.5688272 209.17721558 512.57830811 C199.43860074 512.59491246 189.70001012 512.60041742 179.96138231 512.60153286 C172.04311556 512.6024837 164.12485679 512.6065958 156.20659256 512.61293411 C133.74706139 512.63054578 111.28754932 512.63977322 88.8280112 512.63827316 C87.01227194 512.6381533 87.01227194 512.6381533 85.15985107 512.63803101 C83.94787661 512.63794924 82.73590214 512.63786748 81.48720117 512.63778324 C61.85182733 512.6369706 42.21653024 512.65610316 22.58117859 512.68430774 C2.4101309 512.71305267 -17.76087938 512.72684711 -37.93194807 512.72512019 C-49.25254328 512.72445679 -60.57305805 512.72992683 -71.8936348 512.75147629 C-81.53366928 512.76970933 -91.17358685 512.77401803 -100.81363113 512.76045744 C-105.72879972 512.75393826 -110.64374418 512.7537726 -115.5588913 512.77116394 C-120.06583809 512.78694637 -124.57238399 512.78397849 -129.07932131 512.76659568 C-130.70247174 512.76353711 -132.32565248 512.76711468 -133.94876714 512.77831583 C-152.99548492 512.90096391 -168.45145287 507.86858426 -182.51348877 494.50180054 C-197.54644262 479.06400951 -201.17496307 460.36301964 -201.07022095 439.54914856 C-201.07368712 438.02412571 -201.07845807 436.49910537 -201.08440268 434.97409016 C-201.09681053 430.82775849 -201.09078948 426.68163663 -201.08144403 422.53530467 C-201.07461158 418.04649228 -201.08515537 413.55771411 -201.09338379 409.06890869 C-201.10667852 400.29310263 -201.10386255 391.51737382 -201.09514587 382.7415648 C-201.08835332 375.60578535 -201.08745937 368.47002745 -201.09071732 361.33424568 C-201.09117701 360.31621185 -201.09163671 359.29817803 -201.09211034 358.24929469 C-201.09306958 356.18078493 -201.09404222 354.11227518 -201.09502812 352.04376543 C-201.10356942 332.67711038 -201.09376746 313.31049803 -201.07762702 293.94384999 C-201.06422297 277.34701592 -201.06655511 260.7502448 -201.0803833 244.15341187 C-201.09645791 224.85152068 -201.10274769 205.54966684 -201.09354651 186.24776989 C-201.09259092 184.18744314 -201.09164781 182.12711639 -201.09071732 180.06678963 C-201.09025449 179.05322772 -201.08979166 178.03966582 -201.08931481 176.99538992 C-201.08673072 169.87240509 -201.09108333 162.74944407 -201.09815598 155.62646294 C-201.10659201 146.93997642 -201.10424665 138.25357117 -201.08831374 129.5670939 C-201.08045959 125.14000227 -201.07729043 120.71304589 -201.0872612 116.28595543 C-201.09626805 112.22528249 -201.09117782 108.16486884 -201.07532854 104.10421909 C-201.07200592 102.64346156 -201.07361729 101.18268165 -201.08095591 99.72193878 C-201.17519623 79.38723565 -196.26126795 62.45371397 -182.68927002 47.26742554 C-167.7033369 32.45374452 -149.85008022 28.87548702 -129.62573242 28.92753601 C-127.41253434 28.94285064 -125.19933855 28.95849854 -122.98614502 28.97445679 C-120.69401326 28.98006052 -118.40187787 28.98432694 -116.10974121 28.98731995 C-110.11252713 28.99870751 -104.11553524 29.02812174 -98.1184082 29.06143188 C-91.98450729 29.09226471 -85.85057005 29.10585339 -79.71661377 29.12094116 C-67.70740222 29.15299771 -55.69835469 29.20411959 -43.68927002 29.26742554 C-43.38907959 28.32504028 -43.08888916 27.38265503 -42.77960205 26.41171265 C-39.09287748 15.77997827 -29.0483495 8.07309989 -19.27911377 3.31039429 C-12.66573347 0.64708729 -7.07557399 -0.02472081 0 0 Z "
        fill="#E6A32C" transform="translate(200.68927001953125,-0.267425537109375)" />
    <path
        d="M0 0 C2.29902082 -0.00542583 4.59803815 -0.01255107 6.89704895 -0.02124023 C13.11809942 -0.03942147 19.33888351 -0.03242738 25.55993843 -0.01972389 C32.08240583 -0.00956934 38.60485101 -0.01899639 45.12731934 -0.02526855 C56.77959659 -0.03380099 68.43176217 -0.02060266 80.08402008 -0.00023121 C90.63110571 0.01763778 101.1780152 0.01453304 111.72509766 -0.00390625 C123.9978209 -0.02535266 136.27043197 -0.03325896 148.54317141 -0.0214572 C155.03071093 -0.01523361 161.51812935 -0.01435551 168.00566101 -0.02760315 C174.10596938 -0.03919081 180.20594638 -0.03108225 186.3062191 -0.00802612 C188.53983193 -0.00275466 190.77347284 -0.00422589 193.00707436 -0.01307678 C214.56887117 -0.09061515 214.56887117 -0.09061515 223.35351562 4.51757812 C224.34867187 4.99839844 225.34382813 5.47921875 226.36914062 5.97460938 C237.55415342 12.75992308 245.29376053 21.77137745 248.93086243 34.58148193 C250.97738733 43.03061233 250.7500833 51.4085728 250.6940918 60.04589844 C250.69324408 61.89000942 250.69372348 63.73412141 250.69541931 65.57823181 C250.69627505 70.55059338 250.67871796 75.52273493 250.65769744 80.49504566 C250.63885996 85.70402199 250.63717465 90.91300414 250.63362122 96.12200928 C250.62432144 105.97083844 250.5997358 115.81956693 250.56957275 125.66835189 C250.53596417 136.88726587 250.51952652 148.10618482 250.50448644 159.32513666 C250.4731843 182.38933949 250.42046425 205.45345315 250.35351562 228.51757812 C249.16914288 228.35528623 247.98477013 228.19299433 246.76450729 228.02578449 C243.08576234 227.56780037 239.48859491 227.3905836 235.77764893 227.38627625 C234.52187042 227.38226807 233.26609192 227.37825989 231.97225952 227.37413025 C230.60357664 227.3746052 229.23489378 227.37514129 227.86621094 227.37573242 C226.40668636 227.37269612 224.94716272 227.36917336 223.48764038 227.36520386 C220.3567825 227.35735033 217.22593583 227.35218338 214.09506989 227.34891319 C209.13436962 227.34296935 204.17373982 227.32639721 199.21307373 227.30757141 C197.50992207 227.30123498 195.80677036 227.29490935 194.10361862 227.28859425 C193.25098608 227.28542843 192.39835353 227.28226262 191.51988363 227.27900088 C179.9820181 227.2370405 168.44418681 227.20395888 156.90625 227.19165039 C149.10813117 227.18324639 141.31018873 227.16067298 133.51215816 227.12229472 C129.39374859 227.10261945 125.27560217 227.09010109 121.15714264 227.09512901 C117.2794547 227.09980593 113.40226491 227.08580607 109.52467728 227.05811691 C108.11067719 227.05125703 106.69662501 227.05102178 105.28262711 227.05831718 C88.24217253 227.13728185 74.37641425 221.60072962 61.83789062 210.05664062 C55.13772615 203.20898825 49.9116703 196.03004852 44.85351562 187.89257812 C43.44971542 185.66967498 42.0434093 183.44835264 40.63476562 181.22851562 C40.28019287 180.66936462 39.92562012 180.11021362 39.56030273 179.53411865 C35.91524409 173.80033948 32.16193774 168.14383271 28.35351562 162.51757812 C27.76763672 161.64149902 27.18175781 160.76541992 26.578125 159.86279297 C16.18341611 144.59740366 2.91351144 133.01053442 -15.70942688 129.43984985 C-21.64687378 128.40395768 -27.4357569 128.21127745 -33.4519043 128.19873047 C-34.5751712 128.18868484 -35.69843811 128.17863922 -36.85574341 128.16828918 C-40.52947527 128.13765918 -44.20313495 128.12047843 -47.87695312 128.10351562 C-50.43956617 128.08478774 -53.00217315 128.06521313 -55.56477356 128.04483032 C-61.5957224 127.9988892 -67.62666504 127.96142019 -73.65769225 127.92815745 C-80.53090835 127.88976941 -87.40403238 127.84040372 -94.27717054 127.79017329 C-108.40020664 127.68720195 -122.52330218 127.59782985 -136.64648438 127.51757812 C-136.70082483 124.81678222 -136.74031911 122.11709792 -136.77148438 119.41601562 C-136.79662109 118.27990845 -136.79662109 118.27990845 -136.82226562 117.12084961 C-136.92191244 105.58050288 -131.25088344 95.95249176 -123.64648438 87.51757812 C-113.27674671 78.16886078 -101.38164848 73.32308569 -87.50195312 73.41992188 C-86.73216629 73.42133682 -85.96237946 73.42275177 -85.16926575 73.42420959 C-82.7241315 73.42978206 -80.27909069 73.44232942 -77.83398438 73.45507812 C-76.17057424 73.46009669 -74.50716267 73.46465897 -72.84375 73.46875 C-68.77795909 73.47974247 -64.71223755 73.49698802 -60.64648438 73.51757812 C-60.67266846 72.5964624 -60.69885254 71.67534668 -60.72583008 70.72631836 C-60.81224285 67.23152323 -60.87429648 63.73790012 -60.92114258 60.24243164 C-60.94592921 58.74419991 -60.97977023 57.24608422 -61.02368164 55.74829102 C-61.49595564 39.19647623 -57.86367791 25.22923304 -46.33398438 12.76757812 C-42.50086763 9.13576292 -38.37912562 6.79346112 -33.64648438 4.51757812 C-32.96208031 4.16030891 -32.27767624 3.8030397 -31.57253265 3.43494415 C-21.59851864 -1.0151761 -10.68617327 -0.04234513 0 0 Z "
        fill="#DDD9EB" transform="translate(213.646484375,-0.517578125)" />
    <path
        d="M0 0 C2.30739898 -0.0051444 4.61479402 -0.01242959 6.92218018 -0.02168274 C13.16189485 -0.04013825 19.40118016 -0.02729472 25.64087677 -0.00759244 C32.18555668 0.00884354 38.73021045 -0.00002572 45.27490234 -0.00511169 C56.26341301 -0.01054345 67.2517627 0.0060976 78.24023438 0.03417969 C89.52285853 0.06301272 100.80523973 0.07009832 112.08789062 0.0546875 C125.71793306 0.03609565 139.34780058 0.03789287 152.97784424 0.05690193 C158.17054245 0.06375599 163.36315028 0.06275684 168.55584717 0.05535698 C174.67588391 0.04766895 180.79557272 0.05990279 186.91555023 0.08720589 C189.15518919 0.09406436 191.39486079 0.09421511 193.6344986 0.08699036 C210.88102974 0.03778602 224.18350481 1.43487137 237.3515625 13.66235352 C248.39489627 25.207657 251.50345696 38.35539343 251.39111328 53.86401367 C251.39140533 54.9383667 251.39169739 56.01271973 251.39199829 57.11962891 C251.39061571 60.63655956 251.37510523 64.15327281 251.359375 67.67016602 C251.35564106 70.12209965 251.35279589 72.57403479 251.35079956 75.02597046 C251.34319315 81.45387958 251.32357046 87.88169716 251.3013916 94.30957031 C251.28086856 100.87897504 251.27178407 107.44839467 251.26171875 114.01782227 C251.24032166 126.88895489 251.20661092 139.76002431 251.1640625 152.63110352 C240.81030048 152.72417531 230.45663954 152.79505602 220.10254288 152.8383522 C215.29363375 152.85914226 210.48501284 152.88730125 205.67626953 152.93286133 C201.02726191 152.97662757 196.37852986 153.000305 191.72933197 153.01061249 C189.96407489 153.01794903 188.19883126 153.03227416 186.43369293 153.05402374 C168.02313912 153.27165503 153.48464666 148.90902066 139.6484375 136.17016602 C132.94827302 129.32251364 127.72221718 122.14357391 122.6640625 114.00610352 C121.26026229 111.78320037 119.85395618 109.56187803 118.4453125 107.34204102 C118.09073975 106.78289001 117.73616699 106.22373901 117.37084961 105.64764404 C113.72579096 99.91386487 109.97248461 94.2573581 106.1640625 88.63110352 C105.57818359 87.75502441 104.99230469 86.87894531 104.38867188 85.97631836 C93.99396298 70.71092905 80.72405831 59.12405981 62.10112 55.55337524 C56.1636731 54.51748307 50.37478998 54.32480284 44.35864258 54.31225586 C43.23537567 54.30221024 42.11210876 54.29216461 40.95480347 54.28181458 C37.2810716 54.25118457 33.60741192 54.23400382 29.93359375 54.21704102 C27.37098071 54.19831313 24.80837373 54.17873852 22.24577332 54.15835571 C16.21482448 54.11241459 10.18388183 54.07494558 4.15285462 54.04168284 C-2.72036147 54.00329481 -9.59348551 53.95392911 -16.46662366 53.90369868 C-30.58965977 53.80072734 -44.71275531 53.71135524 -58.8359375 53.63110352 C-58.89027795 50.93030761 -58.92977224 48.23062331 -58.9609375 45.52954102 C-58.97769531 44.77213623 -58.99445313 44.01473145 -59.01171875 43.234375 C-59.11136556 31.69402827 -53.44033656 22.06601715 -45.8359375 13.63110352 C-42.38320373 10.51833122 -38.88905318 7.90737938 -34.8359375 5.63110352 C-34.12837311 5.21781831 -33.42080872 4.8045331 -32.69180298 4.3787241 C-22.24213914 -0.872135 -11.43087734 -0.06484671 0 0 Z "
        fill="#F0F3F5" transform="translate(135.8359375,73.368896484375)" />
    <path
        d="M0 0 C2.29213176 0.00560373 4.58426715 0.00987015 6.87640381 0.01286316 C12.87361789 0.02425072 18.87060978 0.05366495 24.86773682 0.0869751 C31.00163773 0.11780792 37.13557497 0.13139661 43.26953125 0.14648438 C55.2787428 0.17854093 67.28779033 0.22966281 79.296875 0.29296875 C78.98093636 1.33974541 78.98093636 1.33974541 78.65861511 2.40766907 C76.97559266 8.22286926 75.84326058 13.53846215 75.78515625 19.5859375 C75.76720505 20.30284256 75.74925385 21.01974762 75.73075867 21.75837708 C75.67752569 23.99901815 75.64304709 26.23945775 75.609375 28.48046875 C75.57612451 30.0202099 75.54162801 31.55992467 75.50585938 33.09960938 C75.42185388 36.83053526 75.35463518 40.56153331 75.296875 44.29296875 C74.30469971 44.30231445 73.31252441 44.31166016 72.2902832 44.32128906 C68.54555276 44.36170549 64.80160022 44.42759515 61.05737305 44.50048828 C59.44875213 44.52840292 57.84000157 44.54976129 56.23120117 44.56396484 C41.64688358 44.70030935 29.59026864 46.86585898 17.296875 55.29296875 C15.9665625 56.15921875 15.9665625 56.15921875 14.609375 57.04296875 C2.79601298 68.53705072 -0.45079858 82.51739417 -1.703125 98.29296875 C-2.8890625 98.31875 -4.075 98.34453125 -5.296875 98.37109375 C-25.75631645 99.00679706 -44.64749116 103.18458487 -59.63671875 118.234375 C-69.75414343 129.3526632 -74.6733092 142.44804726 -76.703125 157.29296875 C-77.033125 157.29296875 -77.363125 157.29296875 -77.703125 157.29296875 C-77.77290253 144.49641335 -77.82607655 131.69990387 -77.85856152 118.90319633 C-77.87415947 112.95997226 -77.89528969 107.01687918 -77.92944336 101.07373047 C-77.96224715 95.32895765 -77.98002206 89.58431016 -77.98775673 83.83945084 C-77.99326272 81.65720779 -78.00401362 79.47497093 -78.02031517 77.29278183 C-78.18284947 54.61552557 -75.25873583 35.69880642 -59.703125 18.29296875 C-42.63183997 1.41790539 -22.66200492 -0.16340454 0 0 Z "
        fill="#DF8621" transform="translate(77.703125,28.70703125)" />
    <path
        d="M0 0 C17.32926647 3.60824774 30.7671072 12.36010142 41.0625 26.90234375 C50.56455343 42.09413482 51.44708593 58.41425124 51.34057617 75.76513672 C51.33972821 77.71791572 51.34020833 79.67069567 51.34190369 81.62347412 C51.34275848 86.88289345 51.32521689 92.14210423 51.30418181 97.40147543 C51.28532837 102.91340143 51.28365778 108.4253331 51.28010559 113.93728638 C51.27081046 124.35624343 51.24623118 134.77510516 51.21605712 145.19402039 C51.18243398 157.06351327 51.16600726 168.93301088 51.15097082 180.80253959 C51.11967921 205.20174574 51.06696832 229.60086751 51 254 C50.67 254 50.34 254 50 254 C49.70609375 252.42025391 49.70609375 252.42025391 49.40625 250.80859375 C45.52639332 231.52633619 37.04977878 217.68551796 20.9296875 206.140625 C17.42004863 203.99368108 13.62221994 202.70994347 9.75439453 201.36621094 C9.1043898 201.13739227 8.45438507 200.90857361 7.78468323 200.67282104 C6.190837 200.11222496 4.59555901 199.55570244 3 199 C2.99668985 198.04123805 2.99337971 197.0824761 2.98996925 196.09466076 C2.90889165 172.74087698 2.81655069 149.38715829 2.71247292 126.03346539 C2.66240063 114.7396905 2.61595713 103.44592268 2.578125 92.15209961 C2.54513235 82.30575033 2.50526108 72.45945674 2.45720994 62.61316901 C2.43201721 57.40206996 2.41021472 52.19100751 2.39665604 46.97986412 C2.38376995 42.0690628 2.36164562 37.15838746 2.33261681 32.24765587 C2.32359201 30.45106371 2.3178628 28.6544513 2.31578636 26.85783768 C2.30332289 17.70713826 2.1739824 8.95329235 0 0 Z "
        fill="#DF8621" transform="translate(461,30)" />
    <path
        d="M0 0 C1.71379097 -0.01908669 1.71379097 -0.01908669 3.46220398 -0.03855896 C5.32865067 -0.02877014 5.32865067 -0.02877014 7.23280334 -0.01878357 C9.2091703 -0.03170692 9.2091703 -0.03170692 11.22546387 -0.04489136 C14.83302552 -0.06736989 18.44014813 -0.06444937 22.0477531 -0.05556989 C25.0621718 -0.050455 28.07650836 -0.05775665 31.0909186 -0.06504196 C38.20371642 -0.08203626 45.31629968 -0.07848021 52.42909241 -0.06175232 C59.76095405 -0.04483191 67.09222028 -0.06066495 74.42401689 -0.0929752 C80.72484102 -0.11968759 87.02547999 -0.12694269 93.32635504 -0.11846012 C97.08697668 -0.11353554 100.84724014 -0.11572052 104.6078167 -0.13624763 C108.80219962 -0.15804716 112.99545679 -0.13918776 117.18983459 -0.11643982 C119.05324493 -0.13397812 119.05324493 -0.13397812 120.95429993 -0.15187073 C130.33332977 -0.04824985 130.33332977 -0.04824985 134.05093384 2.86660767 C136.27601624 5.5146637 136.27601624 5.5146637 136.96351624 8.5146637 C136.26593798 11.55864155 135.45484935 13.31745158 133.17201424 15.4649334 C128.70064678 17.94053194 123.06705886 17.1915996 118.10389709 17.14576721 C116.7500515 17.15090815 115.39621261 17.15819076 114.04238892 17.16744995 C110.37285935 17.18594891 106.70405725 17.17303643 103.03455806 17.15335965 C99.19271814 17.13696234 95.35092391 17.14578738 91.50906372 17.15087891 C85.05878591 17.15539814 78.60879825 17.13953951 72.15858459 17.11158752 C64.70177321 17.07952258 57.24548472 17.07955701 49.78863615 17.09680229 C42.61300726 17.11266566 35.43757004 17.10593601 28.26194954 17.08886528 C25.20896361 17.08199366 22.15613127 17.08302824 19.10314751 17.09041023 C15.50865918 17.09807142 11.91476607 17.08595349 8.32037926 17.05856133 C6.37221518 17.04839015 4.42397965 17.05786125 2.47581482 17.06788635 C1.3163887 17.0551619 0.15696259 17.04243744 -1.03759766 17.02932739 C-2.04507585 17.02652047 -3.05255404 17.02371355 -4.09056187 17.02082157 C-7.43295254 16.37839608 -8.62137912 15.13394832 -10.72398376 12.5146637 C-11.29039001 10.5146637 -11.29039001 10.5146637 -11.28648376 8.5146637 C-11.30839783 7.8546637 -11.33031189 7.1946637 -11.35289001 6.5146637 C-9.70718154 1.2811063 -4.95431938 0.01403963 0 0 Z "
        fill="#FEDD7A" transform="translate(63.72398376464844,265.48533630371094)" />
    <path
        d="M0 0 C1.15101196 -0.00983414 2.30202393 -0.01966827 3.48791504 -0.02980042 C4.74672989 -0.02013245 6.00554474 -0.01046448 7.30250549 -0.00050354 C8.6447252 -0.00428755 9.98694101 -0.00978827 11.32914734 -0.01687622 C14.97185804 -0.03083912 18.61409684 -0.01965503 22.25678134 -0.00316501 C26.07012727 0.01068772 29.88344585 0.00422506 33.69680786 0.0007019 C40.10174663 -0.00200038 46.50649803 0.0114757 52.91139221 0.03465271 C60.31299536 0.06125132 67.71428498 0.06301328 75.11591953 0.05126435 C82.23865733 0.04047829 89.36128188 0.04668084 96.4840107 0.06081963 C99.51381677 0.06657342 102.54353981 0.06650151 105.57334709 0.06175423 C109.14310562 0.05697563 112.7125217 0.06712222 116.28221512 0.08870888 C118.21469741 0.09691261 120.1472246 0.09043325 122.07971191 0.08351135 C123.2335437 0.09341599 124.38737549 0.10332062 125.57617188 0.11352539 C126.57665275 0.11595529 127.57713362 0.11838518 128.60793209 0.12088871 C131.86955492 0.57300604 133.74375795 1.5067633 136.35157776 3.50120544 C137.41407776 6.87620544 137.41407776 6.87620544 137.35157776 10.50120544 C135.70586395 13.18850613 135.70586395 13.18850613 133.35157776 15.50120544 C130.69974518 16.12761784 130.69974518 16.12761784 127.62049866 16.12939453 C125.86657051 16.14837547 125.86657051 16.14837547 124.07720947 16.16773987 C122.7981221 16.15604767 121.51903473 16.14435547 120.20118713 16.13230896 C118.83763701 16.13744822 117.47409353 16.14472956 116.11056519 16.1539917 C112.40998828 16.17251383 108.7101314 16.15956281 105.00958443 16.1399014 C101.13704205 16.12351988 97.26454546 16.13232709 93.39198303 16.13742065 C86.88865146 16.1419422 80.38560746 16.12606827 73.88233948 16.09812927 C66.36363419 16.06607686 58.84544757 16.06609275 51.32670546 16.08334404 C44.09394801 16.09920789 36.86138072 16.09247657 29.62863159 16.07540703 C26.55052631 16.06853439 23.47257336 16.06957108 20.39447021 16.07695198 C16.76962838 16.08461333 13.14537678 16.07249465 9.5206356 16.04510307 C7.55576296 16.0349312 5.59081945 16.04440335 3.62594604 16.0544281 C2.45666061 16.04170364 1.28737518 16.02897919 0.08265686 16.01586914 C-0.93349449 16.01306222 -1.94964584 16.0102553 -2.99658966 16.00736332 C-6.38506121 15.36060245 -7.57297175 14.21369182 -9.64842224 11.50120544 C-10.14842224 8.00120544 -10.14842224 8.00120544 -9.64842224 4.50120544 C-6.72165277 0.68640527 -4.73500774 0.00099086 0 0 Z "
        fill="#FEDF7C" transform="translate(62.64842224121094,294.49879455566406)" />
    <path
        d="M0 0 C3.6875 0.4375 3.6875 0.4375 6.6875 2.5 C8.7966548 5.59782111 9.02565569 6.63986719 8.37451172 10.22583008 C6.76981938 15.39175327 3.86939992 20.04522361 1.25 24.75 C0.23934024 26.5902568 -0.7676405 28.43249326 -1.77423096 30.27497864 C-2.48719097 31.5798197 -3.20136923 32.88399576 -3.91668701 34.18754578 C-6.72226906 39.31290867 -9.44193136 44.47972222 -12.13671875 49.6640625 C-12.94401207 51.21187427 -13.75138466 52.75964469 -14.55883789 54.30737305 C-15.74299011 56.57791619 -16.92443963 58.84964675 -18.09713745 61.12612915 C-19.19432155 63.25397541 -20.30301279 65.37546237 -21.4140625 67.49609375 C-21.73440964 68.12516632 -22.05475677 68.75423889 -22.3848114 69.40237427 C-24.50815632 73.42282429 -26.84085188 76.49262029 -30.3125 79.4375 C-33.625 79.8125 -33.625 79.8125 -37.3125 78.4375 C-40.38992995 75.76516698 -42.8082269 72.64156119 -45.3125 69.4375 C-46.16731284 68.36406068 -47.02281357 67.29116889 -47.87890625 66.21875 C-49.74291748 63.8735848 -51.58381762 61.51220992 -53.4140625 59.140625 C-55.37854451 56.60468176 -57.3953617 54.12610016 -59.4609375 51.671875 C-59.96971436 51.05658936 -60.47849121 50.44130371 -61.00268555 49.80737305 C-61.97513504 48.63355215 -62.96038842 47.47017999 -63.96020508 46.31958008 C-66.39852116 43.34080558 -67.30085637 41.54624927 -67.71484375 37.6796875 C-67.3125 34.4375 -67.3125 34.4375 -65.6875 32 C-62.53556429 29.92635808 -61.02693562 29.76890159 -57.3125 30.4375 C-52.6402307 33.88562192 -49.23199996 37.7604808 -45.75 42.375 C-40.36774274 50.39111189 -40.36774274 50.39111189 -33.3125 56.4375 C-33.05670166 55.5923584 -32.80090332 54.7472168 -32.53735352 53.87646484 C-31.22782958 50.19977475 -29.55986398 46.83973952 -27.71484375 43.4140625 C-27.3642691 42.75466675 -27.01369446 42.095271 -26.65249634 41.41589355 C-25.52321443 39.29544627 -24.38699317 37.17882104 -23.25 35.0625 C-22.47437177 33.61189993 -21.69889998 32.1612162 -20.92358398 30.71044922 C-16.95723237 23.3008434 -12.97558284 15.89888665 -8.875 8.5625 C-8.52880615 7.94068848 -8.1826123 7.31887695 -7.82592773 6.67822266 C-4.36675711 0.57674151 -4.36675711 0.57674151 0 0 Z "
        fill="#B4E5A0" transform="translate(350.3125,119.5625)" />
</svg>